<?xml version="1.0" standalone="no"?>
<!DOCTYPE svg PUBLIC "-//W3C//DTD SVG 20010904//EN"
 "http://www.w3.org/TR/2001/REC-SVG-20010904/DTD/svg10.dtd">
<svg version="1.0" xmlns="http://www.w3.org/2000/svg"
 width="452.000000pt" height="452.000000pt" viewBox="0 0 452.000000 452.000000"
 preserveAspectRatio="xMidYMid meet">

<g transform="translate(0.000000,452.000000) scale(0.100000,-0.100000)"
fill="#000000" stroke="none">
<path d="M2895 4160 c-88 -20 -180 -107 -270 -256 -105 -173 -312 -479 -394
-582 -122 -153 -192 -208 -338 -265 -67 -26 -150 -66 -185 -89 -75 -48 -208
-180 -300 -298 l-66 -85 -523 -214 c-288 -118 -554 -228 -590 -243 -73 -32
-95 -61 -80 -102 6 -15 164 -135 438 -331 235 -170 440 -317 455 -328 36 -27
73 -24 131 8 33 19 69 29 113 33 57 4 68 2 104 -22 113 -75 290 -398 482 -881
54 -138 60 -145 109 -145 86 0 246 73 384 174 101 74 295 268 455 456 333 389
472 493 660 493 126 0 233 -61 428 -246 204 -193 360 -317 397 -317 27 0 55
20 66 46 8 22 -2 51 -62 182 -171 376 -336 800 -512 1312 -376 1091 -526 1458
-653 1599 -72 79 -170 119 -249 101z m94 -144 c122 -64 269 -408 666 -1561
167 -485 288 -807 414 -1098 28 -65 51 -121 51 -124 0 -2 -51 44 -114 103
-135 126 -209 182 -291 224 -201 100 -411 73 -610 -79 -81 -61 -176 -159 -341
-348 -76 -87 -179 -202 -228 -256 -153 -167 -320 -296 -454 -350 l-63 -26 -9
24 c-5 14 -35 86 -65 161 -189 460 -342 719 -483 813 l-53 36 43 34 c85 68
325 318 395 411 39 53 109 156 155 230 242 386 397 706 668 1377 96 237 141
329 187 383 51 60 83 71 132 46z m-586 -718 c-109 -284 -382 -820 -518 -1020
-11 -16 -31 -4 -201 124 -104 77 -191 142 -193 144 -7 6 85 119 160 195 92 94
171 146 275 184 147 53 192 81 299 189 55 55 120 129 145 164 24 34 46 62 47
62 2 0 -5 -19 -14 -42z m-807 -1000 l203 -152 -26 -36 c-122 -163 -246 -297
-383 -412 -101 -85 -265 -198 -286 -198 -14 0 -737 516 -742 528 -2 8 994 420
1017 421 8 1 105 -67 217 -151z"/>
</g>
</svg>
